#!OML:ASF G:\JayActor3\Patient Classification 1\Patient 1\Session 5\male.ASF
:FULLY-SPECIFIED
:DEGREES
719
root 49.4636 16.1965 -5.47399 814.07 93.6035 816.464
lowerback -1.4372 0.0463223 1.96419
upperback 2.1146 0.0215229 -0.178619
thorax 2.97837 0.0619983 -1.28326
lowerneck -7.78607 4.40541 6.45293
upperneck 10.2326 5.41055 -1.95191
head 4.57384 2.81358 -1.29872
rclavicle -1.82633e-015 1.19271e-015
rhumerus -31.4475 -9.99666 -84.79
rradius 27.2156
rwrist 5.35109
rhand -18.4494 -3.24247
rfingers 7.12502
rthumb 7.83663 -33.0772
lclavicle -1.82633e-015 1.19271e-015
lhumerus -26.9834 2.71678 85.3258
lradius 25.3594
lwrist 11.9703
lhand -17.6372 13.5319
lfingers 7.12502
lthumb 8.62047 43.3359
rfemur -10.3364 3.28846 23.1884
rtibia 36.8746
rfoot -24.9048 -16.647
rtoes 3.90416
lfemur -1.55405 6.49534 -18.516
ltibia 23.3503
lfoot -17.1935 4.60175
ltoes -5.69872
720
root 49.4793 16.1977 -5.46094 814.19 93.6157 816.562
lowerback -1.41006 0.0494157 1.9708
upperback 2.10458 0.0256857 -0.161675
thorax 2.95286 0.0636756 -1.26938
lowerneck -7.78723 4.40641 6.47261
upperneck 10.1904 5.41054 -1.97143
head 4.56212 2.81245 -1.30824
rclavicle -5.71506e-016 -2.38542e-015
rhumerus -31.3769 -9.83648 -84.8876
rradius 27.4268
rwrist 5.14773
rhand -18.4845 -3.24202
rfingers 7.12502
rthumb 7.80272 -33.078
lclavicle -5.71506e-016 -2.38542e-015
lhumerus -27.1667 3.04153 85.3317
lradius 24.8306
lwrist 11.4078
lhand -17.3898 13.5644
lfingers 7.12502
lthumb 8.85919 43.3585
rfemur -10.2505 3.28646 23.2545
rtibia 36.7888
rfoot -24.9377 -16.6349
rtoes 3.95336
lfemur -1.46439 6.4025 -18.4722
ltibia 23.266
lfoot -17.2121 4.73657
ltoes -5.82122
721
root 49.4948 16.1987 -5.44801 814.388 93.6148 816.737
lowerback -1.38633 0.0543127 1.96974
upperback 2.09505 0.0326129 -0.153432
thorax 2.92989 0.0666874 -1.26004
lowerneck -7.77805 4.40593 6.49513
upperneck 10.1387 5.40878 -1.99057
head 4.54577 2.81056 -1.31854
rclavicle -9.93923e-017 5.1684e-015
rhumerus -31.3055 -9.67881 -84.9907
rradius 27.6236
rwrist 4.95267
rhand -18.5306 -3.21531
rfingers 7.12502
rthumb 7.75827 -33.053
lclavicle -9.93923e-017 5.1684e-015
lhumerus -27.3428 3.38939 85.3086
lradius 24.2834
lwrist 10.7972
lhand -17.1388 13.6162
lfingers 7.12502
lthumb 9.10143 43.3999
rfemur -10.1741 3.28291 23.3033
rtibia 36.7164
rfoot -24.9735 -16.6119
rtoes 3.99601
lfemur -1.37406 6.31613 -18.4423
ltibia 23.1776
lfoot -17.2324 4.86463
ltoes -5.9347
722
root 49.51 16.1995 -5.4351 814.684 93.6051 817.004
lowerback -1.37131 0.0605669 1.96276
upperback 2.08667 0.0414995 -0.153239
thorax 2.91307 0.0707028 -1.25558
lowerneck -7.76635 4.40525 6.51734
upperneck 10.0813 5.40585 -2.00071
head 4.52696 2.80854 -1.32621
rclavicle -1.42876e-015 -3.57812e-015
rhumerus -31.2272 -9.52129 -85.1029
rradius 27.8036
rwrist 4.76185
rhand -18.5834 -3.17966
rfingers 7.12502
rthumb 7.70725 -33.0192
lclavicle -1.42876e-015 -3.57812e-015
lhumerus -27.5091 3.7725 85.2506
lradius 23.7203
lwrist 10.1385
lhand -16.9022 13.6862
lfingers 7.12502
lthumb 9.32968 43.4597
rfemur -10.1128 3.28282 23.3408
rtibia 36.657
rfoot -25.0118 -16.5843
rtoes 4.02709
lfemur -1.28946 6.23993 -18.4218
ltibia 23.0858
lfoot -17.2521 4.98359
ltoes -6.0263
723
root 49.5247 16.2003 -5.42244 815.032 93.5921 817.316
lowerback -1.36718 0.0675819 1.95755
upperback 2.0789 0.0512191 -0.158673
thorax 2.90309 0.0753003 -1.25787
lowerneck -7.75601 4.40384 6.53405
upperneck 10.0223 5.40135 -2.00045
head 4.50738 2.8061 -1.3299
rclavicle -9.31803e-016 -1.15295e-014
rhumerus -31.1457 -9.36443 -85.2195
rradius 27.9694
rwrist 4.57032
rhand -18.646 -3.12084
rfingers 7.12502
rthumb 7.64689 -32.9626
lclavicle -9.31803e-016 -1.15295e-014
lhumerus -27.6691 4.17905 85.1632
lradius 23.1456
lwrist 9.45928
lhand -16.6953 13.757
lfingers 7.12502
lthumb 9.52931 43.5215
rfemur -10.068 3.27762 23.3712
rtibia 36.6085
rfoot -25.0491 -16.5498
rtoes 4.04337
lfemur -1.21466 6.1681 -18.4061
ltibia 22.9933
lfoot -17.271 5.09623
ltoes -6.09158
